<svg width="33" height="41" viewBox="0 0 43 51" fill="none" xmlns="http://www.w3.org/2000/svg">
<path d="M28.5714 0H3.57143C1.60714 0 0 1.61159 0 3.58132V46.5571C0 48.5268 1.60714 50.1384 3.57143 50.1384H39.2857C41.25 50.1384 42.8571 48.5268 42.8571 46.5571V14.3253L28.5714 0ZM39.2857 46.5571H3.57143V3.58132H25V17.9066H39.2857V46.5571Z" fill="#261201"/>
<path d="M13.3214 24.1022C9.82141 27.6119 9.82141 33.2703 13.3214 36.78C16.3928 39.86 21.1071 40.2181 24.5714 37.9261L29.75 43.119L32.2857 40.5762L27.1071 35.3833C29.3928 31.9094 29.0357 27.1821 25.9643 24.1022C22.4643 20.6283 16.8214 20.6283 13.3214 24.1022ZM23.4286 34.2373C21.3214 36.3503 17.9286 36.3503 15.8571 34.2373C13.75 32.1243 13.75 28.7221 15.8571 26.6449C17.9643 24.5319 21.3571 24.5319 23.4286 26.6449C25.5357 28.7579 25.5357 32.1243 23.4286 34.2373Z" fill="#261201"/>
</svg>
