<svg width="35" height="41" viewBox="0 0 45 51" fill="none" xmlns="http://www.w3.org/2000/svg">
<path d="M41.25 3.76038L37.5 0L33.75 3.76038L30 0L26.25 3.76038L22.5 0L18.75 3.76038L15 0L11.25 3.76038L7.5 0V35.0969H0V42.6177C0 46.7792 3.35 50.1384 7.5 50.1384H37.5C41.65 50.1384 45 46.7792 45 42.6177V0L41.25 3.76038ZM30 45.1246H7.5C6.125 45.1246 5 43.9965 5 42.6177V40.1107H30V45.1246ZM40 42.6177C40 43.9965 38.875 45.1246 37.5 45.1246C36.125 45.1246 35 43.9965 35 42.6177V35.0969H12.5V7.52076H40V42.6177Z" fill="#261201"/>
<path d="M30 12.5345H15V17.5484H30V12.5345Z" fill="#261201"/>
<path d="M37.5 12.5345H32.5V17.5484H37.5V12.5345Z" fill="#261201"/>
<path d="M30 20.0553H15V25.0691H30V20.0553Z" fill="#261201"/>
<path d="M37.5 20.0553H32.5V25.0691H37.5V20.0553Z" fill="#261201"/>
</svg>
