<svg width="35" height="35" viewBox="0 0 53 53" fill="none" xmlns="http://www.w3.org/2000/svg">
<circle cx="26.5" cy="26.5" r="25" stroke="#BFB5A8" stroke-width="3"/>
<path d="M28.804 26.5C28.804 32.0918 24.2859 36.6324 18.6888 36.6324C13.0917 36.6324 8.57353 32.0918 8.57353 26.5C8.57353 20.9082 13.0917 16.3677 18.6888 16.3677C24.2859 16.3677 28.804 20.9082 28.804 26.5ZM39.8858 26.5C39.8858 31.7563 37.6155 36.0285 34.8282 36.0285C32.0409 36.0285 29.7706 31.7563 29.7706 26.5C29.7706 21.2437 32.0409 16.9716 34.8282 16.9716C37.6155 16.9716 39.8858 21.2214 39.8858 26.5ZM44.4265 26.5C44.4265 31.2195 43.6397 35.0443 42.6507 35.0443C41.6616 35.0443 40.8749 31.2195 40.8749 26.5C40.8749 21.7805 41.6616 17.9557 42.6507 17.9557C43.6397 17.9557 44.4265 21.7805 44.4265 26.5Z" fill="#BFB5A8"/>
</svg>
