<svg width="34" height="34" viewBox="0 0 44 44" fill="none" xmlns="http://www.w3.org/2000/svg">
<path d="M19.1795 4.51303C19.8113 4.51303 20.3077 5.00944 20.3077 5.64124V10.1541H33.8462V23.6925H38.359C38.9908 23.6925 39.4872 24.1889 39.4872 24.8207C39.4872 25.4525 38.9908 25.9489 38.359 25.9489H33.8462V39.4874H29.0626C27.5282 35.5387 23.6697 32.7182 19.1795 32.7182C14.6892 32.7182 10.8308 35.5387 9.29641 39.4874H4.51282V34.7038C8.46154 33.1694 11.2821 29.311 11.2821 24.8207C11.2821 20.3305 8.4841 16.472 4.53539 14.9376L4.51282 10.1541H18.0513V5.64124C18.0513 5.00944 18.5477 4.51303 19.1795 4.51303ZM19.1795 0.000213623C16.0656 0.000213623 13.5385 2.52739 13.5385 5.64124H4.51282C2.03077 5.64124 0.0225641 7.67201 0.0225641 10.1541V18.7284H0.676923C4.03897 18.7284 6.76923 21.4587 6.76923 24.8207C6.76923 28.1828 4.03897 30.913 0.676923 30.913H0V39.4874C0 41.9694 2.03077 44.0002 4.51282 44.0002H13.0872V43.3233C13.0872 39.9612 15.8174 37.231 19.1795 37.231C22.5415 37.231 25.2718 39.9612 25.2718 43.3233V44.0002H33.8462C36.3282 44.0002 38.359 41.9694 38.359 39.4874V30.4618C41.4728 30.4618 44 27.9346 44 24.8207C44 21.7069 41.4728 19.1797 38.359 19.1797V10.1541C38.359 7.67201 36.3282 5.64124 33.8462 5.64124H24.8205C24.8205 2.52739 22.2933 0.000213623 19.1795 0.000213623Z" fill="#BFB5A8"/>
</svg>
