<svg width="33" height="46" viewBox="0 0 43 56" fill="none" xmlns="http://www.w3.org/2000/svg">
<path d="M21.5 12.5348V20.0556L32.25 10.0279L21.5 0.000213623V7.52098C9.62125 7.52098 0 16.4958 0 27.5764C0 31.5122 1.23625 35.1723 3.3325 38.2558L7.25625 34.5957C6.04687 32.515 5.375 30.1083 5.375 27.5764C5.375 19.2784 12.6044 12.5348 21.5 12.5348ZM39.6675 16.8969L35.7437 20.557C36.9262 22.6628 37.625 25.0444 37.625 27.5764C37.625 35.8743 30.3956 42.6179 21.5 42.6179V35.0971L10.75 45.1248L21.5 55.1525V47.6317C33.3787 47.6317 43 38.6569 43 27.5764C43 23.6405 41.7638 19.9804 39.6675 16.8969Z" fill="#BFB5A8"/>
</svg>
