<svg width="35" height="35" viewBox="0 0 55 55" fill="none" xmlns="http://www.w3.org/2000/svg">
<path d="M36.6673 18.3335C40.314 18.3335 43.8114 19.7822 46.3899 22.3607C48.9687 24.9394 50.4173 28.4369 50.4173 32.0836V48.1251H41.2506V32.0836C41.2506 30.8679 40.7678 29.7021 39.9082 28.8427C39.0486 27.9831 37.8828 27.5001 36.6673 27.5001C35.4518 27.5001 34.286 27.9831 33.4264 28.8427C32.5669 29.7021 32.0841 30.8679 32.0841 32.0836V48.1251H22.9173V32.0836C22.9173 28.4369 24.366 24.9394 26.9445 22.3607C29.5232 19.7822 33.0206 18.3335 36.6673 18.3335Z" stroke="#BFB5A8" stroke-width="3" stroke-linecap="round" stroke-linejoin="round"/>
<path d="M13.7494 20.625H4.5827V48.125H13.7494V20.625Z" stroke="#BFB5A8" stroke-width="3" stroke-linecap="round" stroke-linejoin="round"/>
<path d="M9.16603 13.7502C11.6973 13.7502 13.7494 11.6981 13.7494 9.16684C13.7494 6.63553 11.6973 4.5835 9.16603 4.5835C6.63473 4.5835 4.5827 6.63553 4.5827 9.16684C4.5827 11.6981 6.63473 13.7502 9.16603 13.7502Z" stroke="#BFB5A8" stroke-width="3" stroke-linecap="round" stroke-linejoin="round"/>
</svg>
