<svg width="35" height="35" viewBox="0 0 55 55" fill="none" xmlns="http://www.w3.org/2000/svg">
<path d="M38.9583 4.58325H16.0415C9.71324 4.58325 4.58318 9.71332 4.58318 16.0416V38.9584C4.58318 45.2865 9.71324 50.4166 16.0415 50.4166H38.9583C45.2864 50.4166 50.4165 45.2865 50.4165 38.9584V16.0416C50.4165 9.71332 45.2864 4.58325 38.9583 4.58325Z" stroke="#BFB5A8" stroke-width="3" stroke-linecap="round" stroke-linejoin="round"/>
<path d="M36.6667 26.0564C36.9494 27.9638 36.6237 29.9115 35.7357 31.623C34.8476 33.3343 33.4425 34.7223 31.7203 35.5891C29.9982 36.456 28.0465 36.7577 26.1429 36.4512C24.2393 36.145 22.4807 35.2462 21.1172 33.8829C19.754 32.5195 18.8552 30.7609 18.5489 28.8573C18.2426 26.9537 18.5443 25.002 19.4111 23.2797C20.2779 21.5576 21.6659 20.1526 23.3772 19.2645C25.0886 18.3765 27.0364 18.0507 28.9437 18.3335C30.8892 18.622 32.6902 19.5285 34.0809 20.9192C35.4717 22.31 36.3782 24.111 36.6667 26.0564Z" stroke="#BFB5A8" stroke-width="3" stroke-linecap="round" stroke-linejoin="round"/>
<path d="M40.1042 14.8958H40.1272" stroke="#BFB5A8" stroke-width="5" stroke-linecap="round" stroke-linejoin="round"/>
</svg>
