<svg width="44" height="26" viewBox="0 0 64 46" fill="none" xmlns="http://www.w3.org/2000/svg">
<path d="M60.7386 8.61364C60.0568 6.02273 58.0114 3.97727 55.4205 3.26136C50.75 2 32 2 32 2C32 2 13.25 2 8.54545 3.26136C5.95455 3.94318 3.94318 5.98864 3.22727 8.61364C2 13.3182 2 23.1364 2 23.1364C2 23.1364 2 32.9545 3.26136 37.6591C3.94318 40.25 5.98864 42.2955 8.57955 43.0114C13.25 44.2727 32 44.2727 32 44.2727C32 44.2727 50.75 44.2727 55.4545 43.0114C58.0455 42.3295 60.0568 40.2841 60.7727 37.6591C62 32.9545 62 23.1364 62 23.1364C62 23.1364 62 13.3182 60.7386 8.61364Z" stroke="#BFB5A8" stroke-width="3"/>
<path d="M25.8636 32.0682V14.2046L41.5455 23.1364L25.8636 32.0682Z" fill="#BFB5A8"/>
</svg>
