<?xml version="1.0" encoding="UTF-8"?>
<svg id="Camada_1" data-name="Camada 1" xmlns="http://www.w3.org/2000/svg" viewBox="0 0 1362.12 685.41">
  <defs>
    <style>
      .cls-1, .cls-2 {
        fill: #fff;
      }

      .cls-2 {
        fill-rule: evenodd;
      }
    </style>
  </defs>
  <g>
    <path class="cls-1" d="M37.38,373.76c.08,.12,.14,.27,.22,.41l.06-.06c-.08-.12-.18-.23-.29-.35Z"/>
    <path class="cls-1" d="M499.96,157.3c16.23-46.65,23.92-99.16,19.74-157.12-30.52,63.72-73.17,119.32-129.71,169.31C252.72,302.27,35.39,356,19.85,206.05v-.03c15.55,149.94,232.84,96.22,370.12-36.53,50.44-44.61,89.82-93.69,119.4-149L519.65,.16l-12.05,.63c-14.63,29.64-32.03,57.44-52.47,83.68l-5.6-4.38C381.35,8.47,274.74-18.51,177.33,13.05,122.84,30.7,68.84,73.7,37.42,124.12c-1.51,2.43-2.92,4.93-4.25,7.49C5.13,180.19-3.56,242.07,1.25,298.91c8.22,97.08,129.75,136.95,250.41,97.92,79.35-25.67,160.1-81.81,212.17-164.51C393.64,414.6,153.8,499.91,41.63,394.21l-5.46,2.41c35.61,37.01,83.11,53.32,133.81,53.41-50.71-.09-98.21-16.39-133.83-53.41,53.57,94.26,197.25,161.07,325.91,105.69,119.57-51.47,201.63-196.59,137.89-345.02Zm-117.7,3.8c-95.79,91.17-231.38,143.72-304.17,112.35,62.87-109.69,252.93-218.43,345.55-156.11l.08,.08c.55,.35,1.33,.93,2.17,1.48-13.49,14.52-28.01,28.57-43.63,42.19ZM29.4,186.86c.43-29.99,8.35-49.52,25.57-73.95,30.4-43.12,76.65-78.59,123.53-93.75,83.76-27.07,175.27-7.13,241.28,49.39l-.05-.03c-8.04-6.87-16.47-13.21-25.2-18.98l-.31-.2c-1.17-.78-2.35-1.53-3.54-2.29l-.29-.18c-1.21-.76-2.41-1.53-3.64-2.27l-.06-.04c-6.3-3.85-12.74-7.38-19.31-10.66l-.53-.27c-1.15-.55-2.29-1.1-3.44-1.66l-.84-.41c-1.1-.53-2.23-1.04-3.35-1.55l-.82-.37c-1.17-.53-2.35-1.04-3.52-1.55l-.33-.14c-5.2-2.23-10.47-4.3-15.81-6.18-.27-.1-.55-.18-.82-.29-1.08-.39-2.19-.76-3.29-1.13-.41-.14-.82-.27-1.23-.41-1.06-.35-2.11-.7-3.17-1.02-.47-.14-.92-.29-1.37-.43-1.02-.33-2.07-.63-3.11-.94-.45-.12-.92-.25-1.37-.39-1.08-.31-2.15-.61-3.21-.9-.31-.08-.63-.16-.94-.25-3.66-1-7.34-1.9-11.05-2.72-.47-.1-.92-.2-1.39-.31-.96-.2-1.94-.41-2.93-.61-.59-.1-1.17-.23-1.76-.35-.94-.18-1.88-.35-2.82-.53-.65-.12-1.29-.23-1.92-.35-.92-.16-1.82-.33-2.74-.47-.68-.12-1.35-.22-2.03-.33-.88-.14-1.76-.29-2.66-.41-.7-.1-1.41-.18-2.11-.29-.88-.1-1.76-.25-2.64-.35-.72-.1-1.43-.18-2.15-.27-1.55-.18-3.13-.35-4.68-.51-.8-.06-1.6-.16-2.39-.22-.8-.08-1.62-.14-2.41-.2-.8-.06-1.62-.12-2.41-.18-.82-.06-1.64-.12-2.43-.16-.82-.06-1.62-.1-2.41-.14-.8-.04-1.62-.06-2.41-.1-.82-.02-1.64-.06-2.45-.08-.78-.02-1.58-.04-2.35-.06-.86-.02-1.72-.02-2.58-.04-.74,0-1.47-.02-2.23-.02-.98,0-1.94,.02-2.9,.02-.65,0-1.29,0-1.94,.02-1.58,.02-3.15,.06-4.73,.12-.49,.02-.96,.04-1.45,.06-1.15,.04-2.29,.1-3.44,.16-.65,.04-1.29,.08-1.94,.12-.98,.06-1.96,.12-2.95,.2-.7,.04-1.39,.1-2.09,.16-.94,.08-1.88,.16-2.82,.25-.72,.06-1.41,.12-2.11,.2-.94,.1-1.88,.2-2.82,.31-.68,.08-1.37,.16-2.07,.25-1,.12-1.98,.25-2.99,.39-.63,.08-1.25,.16-1.86,.25-1.23,.16-2.43,.37-3.66,.55-.39,.06-.8,.12-1.19,.18-1.6,.27-3.21,.53-4.81,.84-.47,.08-.94,.18-1.41,.27-1.15,.22-2.31,.43-3.46,.67-.59,.1-1.19,.25-1.78,.37-1.02,.22-2.05,.45-3.07,.68-.65,.14-1.31,.31-1.94,.45-.98,.25-1.94,.47-2.93,.72-.65,.16-1.31,.33-1.96,.49-.98,.25-1.98,.51-2.97,.78-.63,.16-1.25,.35-1.86,.51-1.06,.29-2.13,.61-3.19,.92-.55,.16-1.08,.31-1.62,.47-1.6,.49-3.19,.98-4.77,1.49-1.19,.37-2.37,.78-3.56,1.19l-.47,.16c-1.13,.39-2.25,.8-3.38,1.21l-.61,.22c-1.13,.43-2.23,.86-3.35,1.29l-.55,.23c-1.15,.47-2.31,.92-3.46,1.41l-.18,.08c-1.15,.47-2.27,.96-3.42,1.47l-.41,.18c-1.13,.49-2.25,1-3.35,1.51l-.63,.29c-1.1,.51-2.21,1.04-3.31,1.58l-.53,.27c-1.15,.55-2.27,1.13-3.4,1.7l-.33,.16c-1.1,.57-2.21,1.15-3.31,1.74l-.33,.18c-1.13,.59-2.23,1.21-3.33,1.82l-.59,.33c-1.08,.61-2.17,1.23-3.25,1.86l-.55,.31c-1.1,.63-2.21,1.29-3.31,1.96l-.33,.2c-1.1,.68-2.23,1.37-3.33,2.07l-.16,.1c-1.1,.7-2.21,1.41-3.31,2.13l-.49,.33c-1.06,.7-2.13,1.41-3.19,2.13l-.53,.37c-1.06,.72-2.13,1.45-3.19,2.21l-.39,.27c-2.21,1.58-4.42,3.19-6.59,4.83l-.41,.31c-1.04,.8-2.09,1.6-3.11,2.39l-.47,.37c-1.04,.82-2.09,1.64-3.11,2.48l-.33,.27c-2.17,1.74-4.3,3.54-6.4,5.36l-.27,.25c-1.02,.88-2.03,1.78-3.03,2.68l-.37,.33c-1,.9-2,1.8-2.99,2.72l-.33,.31c-1.02,.94-2.03,1.88-3.03,2.84l-.04,.04c-1.04,1-2.05,1.98-3.07,2.99l-.12,.12c-.98,.98-1.96,1.96-2.93,2.95l-.29,.29c-.96,.96-1.9,1.96-2.84,2.95l-.27,.27c-.96,1.02-1.92,2.05-2.86,3.07l-.04,.04c-1.92,2.11-3.83,4.23-5.67,6.4l-.27,.33c-.86,1-1.72,2.05-2.58,3.07l-.31,.37c-.88,1.04-1.74,2.11-2.58,3.17l-.12,.14c-1.76,2.21-3.48,4.44-5.15,6.69l-.18,.27c-.8,1.08-1.6,2.17-2.37,3.25l-.27,.37c-3.15,4.4-6.12,8.88-8.9,13.44-11.52,19.08-16.96,36.7-17.31,61.39-.03,2.4,0,4.74,.07,7.04-.09-2.3-.12-4.65-.09-7.04Zm-8.17-19.27c-.48,2.71-.88,5.43-1.2,8.16l.04,.02-.21,.65c.35-2.95,.81-5.9,1.37-8.83Z"/>
  </g>
  <path class="cls-2" d="M496.93,520.54l160.8-361.26,166.98,361.26c-18.74,0-35.43-2.33-54.1,0-15.81-46.37-34.02-93.11-54.64-140.18h-130.38c-3.78,9.96-10.66,27.49-20.62,52.57s-16.75,42.77-20.35,53.08c-3.6,10.31-7.14,21.83-10.55,34.53-12.48-2.09-24.65-2.5-37.11,0h-.02Zm401.09,.55V159.88c16.08,1.62,30.48,1.15,46.62,0V500.29c46.47,0,99.04-5.91,145.66-11.52l-3.74,32.32h-188.54Zm271.83,0V159.88c16.08,1.62,30.48,1.15,46.62,0V500.29c46.47,0,99.04-5.91,145.66-11.52l-3.76,32.32h-188.52Zm140.65,162.01v-97.53h50.77c-.35,3.15-.39,5.6,0,8.71-12.42-2.68-25.53-2-38.19-2v36.04c11.72,0,23.2-.16,34.9-.86-.41,2.86-.35,5.01,0,7.88-11.66-.84-23.2-.86-34.9-.86v41.89c12.99,0,26.18,.47,39.05-2-.47,3.23-.39,5.38,0,8.71h-51.63v.02Zm-316.32-97.53h45.47c26.92,0,43.9,18.66,43.9,44.47,0,31.62-20.97,53.06-53.63,53.06h-35.76v-97.53h.02Zm-151.29,0c4.34,.43,8.24,.37,12.58,0v98.1c-4.13-.7-8.47-.7-12.58,0v-98.1Zm-87.36,97.53v-97.53h29.03c8.49,0,15.75,1.29,21.81,3.87,6.05,2.58,9.02,7.92,8.94,16.02,0,6.57-2.17,12.03-6.5,16.36s-9.65,7.26-15.96,8.8c7.45,.67,13.62,2.78,18.59,6.36,4.95,3.58,7.45,8.98,7.45,16.24,0,6.01-1.49,11.27-4.5,15.79-3.01,4.54-7.1,8.02-12.29,10.43-5.2,2.43-11.03,3.64-17.51,3.64h-29.03l-.02,.02Zm-106.96,.57l44.61-100.25,46.33,100.25c-5.2,0-9.84-.65-15.01,0-4.38-12.87-9.43-25.84-15.16-38.91h-36.19c-1.04,2.76-2.95,7.63-5.73,14.58-2.76,6.95-4.64,11.86-5.65,14.73-1,2.86-1.98,6.05-2.93,9.57-3.46-.57-6.83-.7-10.29,0v.02Zm-37.33,.29v-91.37h-3.58c-8.39,0-17.59,.57-27.59,1.72,.2-2.88,.2-5.83,0-8.71h73.93c-.41,3.58-.35,5.89,0,8.71-9.14-1.15-19.21-1.72-30.17-1.72v91.37c-4.4-.55-8.2-.43-12.58,0Zm-130.85-.29v-98.1h5.58c11.35,12.29,22.68,24.59,34.04,36.9,11.35,12.29,22.68,24.59,34.04,36.9h1.43v-73.78c.76,.1,1.45,.16,2.07,.2,.61,.04,1.21,.16,1.78,.35,.96-.18,1.74-.31,2.35-.35,.61-.04,1.27-.12,1.92-.2v98.1h-4.58c-7.92-9.06-30.99-34.84-69.22-77.36h-1.43v77.36c-.96-.18-1.74-.31-2.35-.35-.61-.04-1.31-.12-2.07-.2-.68,.1-1.25,.16-1.72,.2-.47,.04-1.1,.16-1.86,.35l.02-.02Zm-126.84-48.91c-.18-8.86,1.76-17.2,5.87-25.02,4.09-7.81,10.13-14.16,18.08-19.02,7.96-4.87,17.18-7.28,27.68-7.28h1.15c9.06,.1,17.12,1.51,24.16,4.3,7.06,2.76,12.76,6.44,17.16,11,4.38,4.58,7.63,9.72,9.72,15.44,2.11,5.73,3.15,11.82,3.15,18.31,0,10.68-2.39,20.05-7.16,28.11-4.77,8.06-11.29,14.2-19.6,18.45-8.28,4.23-17.35,6.36-27.16,6.36h-.57c-14.4-.18-26.65-4.34-36.76-12.44s-15.34-20.82-15.73-38.19l.02-.02Zm-96.39-.86c0-31.5,24.42-50.48,53.92-50.48,10.21,0,20.46,2.23,30.74,6.73-1.31,2.62-2.64,5.87-4.15,11.15-6.71-7.73-16.96-12.29-27.16-12.29-26.22-.43-39.34,21.91-39.34,45.76-.14,22.75,13.23,45.04,38.19,45.04,10.78,0,20.93-3.91,30.46-11.72l-.86,9.14c-9.35,5.44-19.82,8.14-31.46,8.14-31.01,0-50.34-20.84-50.34-51.49v.02Zm624.7,49.4v-97.59c4.34,.43,8.22,.31,12.6,0v91.97c12.56,0,26.76-1.6,39.36-3.11l-1.02,8.73h-50.93Zm72.15-97.74c4.34,.43,8.24,.37,12.58,0v98.1c-4.13-.7-8.47-.7-12.58,0v-98.1Zm139.28,98.1l44.61-100.25,46.33,100.25c-5.2,0-9.84-.65-15.01,0-4.38-12.87-9.43-25.84-15.16-38.91h-36.19c-1.04,2.76-2.95,7.63-5.73,14.58-2.76,6.95-4.64,11.86-5.65,14.73-1,2.86-1.98,6.05-2.93,9.57-3.46-.57-6.83-.7-10.29,0v.02Zm107.53-98.1h45.47c26.92,0,43.9,18.66,43.9,44.47,0,31.62-20.97,53.06-53.63,53.06h-35.76v-97.53h.02Zm12.58,5.87v85.24c9.14,.57,16.88,.86,23.18,.86,26.92-.9,39.34-20.66,39.34-45.19,0-21.11-6.95-36.37-29.6-40.6-10.8-1.53-22.05-.92-32.89-.29l-.02-.02Zm-92.81,47.48h31.32l-16.02-36.47-15.3,36.47Zm-753.04-3.58c0,9.53,1.64,17.67,4.93,24.44,3.29,6.77,7.94,11.88,13.95,15.36,6.01,3.48,12.83,5.28,20.46,5.36,6.77,.1,13.15-1.72,19.17-5.44,6.01-3.72,10.84-9.08,14.52-16.08,3.66-7.02,5.65-14.71,5.93-23.09,.68-14.87-2.54-26.43-9.57-34.67-7.06-8.24-16.77-12.6-29.17-13.09-8.86-.1-16.3,2-22.32,6.28-6.01,4.3-10.49,10.06-13.44,17.31-2.95,7.24-4.44,15.12-4.44,23.61l-.02,.02Zm308.3,3.58h31.32l-16.02-36.47-15.3,36.47Zm92.23-10.29h8.57c8.1,0,14.48-1.74,19.17-5.22,4.66-3.48,7.06-8.41,7.16-14.79,.1-6.77-1.96-11.37-6.16-13.81-4.19-2.43-10.06-3.74-17.59-3.93h-11.15v37.74Zm0,49.19h14.16c4.01,0,7.83-.9,11.52-2.72,3.66-1.82,6.59-4.44,8.71-7.88,2.15-3.44,3.21-7.24,3.21-11.43,0-14.58-9.68-21.89-29.03-21.89h-8.57v43.92Zm238.67-86.38v85.24c9.14,.57,16.88,.86,23.18,.86,26.92-.9,39.32-20.66,39.32-45.19,0-21.11-6.95-36.37-29.6-40.6-10.8-1.53-22.05-.92-32.89-.29v-.02Zm-411.4-232.23h112.87l-57.72-131.43-55.15,131.43Z"/>
</svg>