<svg width="41" height="18" viewBox="0 0 55 28" fill="none" xmlns="http://www.w3.org/2000/svg">
<path d="M9.64433 5.54243L4.14133 11.0607L9.64433 16.5789L15.1473 11.0607L9.64433 5.54243Z" fill="#261201"/>
<path d="M45.375 6.92438L39.875 16.576H50.875L45.375 6.92438Z" fill="#261201"/>
<path d="M38.225 19.1406C35.3925 17.7067 31.735 16.576 27.5 16.576C23.265 16.576 19.6075 17.7067 16.775 19.1406C14.905 20.0506 13.75 21.981 13.75 24.0768V27.6065H41.25V24.0768C41.25 21.981 40.095 20.0506 38.225 19.1406ZM18.0125 23.4701C18.1225 23.1943 18.3425 22.9737 18.6175 22.8358C20.5425 21.8707 23.65 20.7125 27.5 20.7125C31.3225 20.7125 34.4575 21.8707 36.3825 22.8358C36.6575 22.9737 36.8775 23.1943 36.9875 23.4701H18.0125Z" fill="#261201"/>
<path d="M51.535 19.3612C49.775 18.6718 47.685 18.2306 45.375 18.2306C44.165 18.2306 43.01 18.3685 41.9375 18.5615C43.2575 20.0506 44 21.9809 44 24.0492V27.6065H55V24.4904C55 22.2291 53.625 20.1885 51.535 19.3612Z" fill="#261201"/>
<path d="M9.625 18.2306C7.2875 18.2306 5.225 18.6718 3.465 19.3612C1.375 20.1885 0 22.2291 0 24.4904V27.6065H11V24.0767C11 21.9809 11.77 20.0782 13.0625 18.5891C11.99 18.3685 10.835 18.2306 9.625 18.2306Z" fill="#261201"/>
<path d="M27.5 13.8183C31.295 13.8183 34.375 10.7298 34.375 6.92431C34.375 3.1188 31.295 0.0302734 27.5 0.0302734C23.705 0.0302734 20.625 3.1188 20.625 6.92431C20.625 10.7298 23.705 13.8183 27.5 13.8183ZM27.5 4.16669C29.0125 4.16669 30.25 5.40762 30.25 6.92431C30.25 8.44099 29.0125 9.68192 27.5 9.68192C25.9875 9.68192 24.75 8.44099 24.75 6.92431C24.75 5.40762 25.9875 4.16669 27.5 4.16669Z" fill="#261201"/>
</svg>
